<svg xmlns="http://www.w3.org/2000/svg" width="256" height="256" viewBox="0 0 100 100"><rect width="100" height="100" rx="50" fill="#1b4994"></rect><path fill="#a5be4b" d="M75.95 49.79L75.84 51.25L29.15 51.25Q29.36 57.59 32.37 62.53Q35.39 67.47 40.54 70.18Q45.68 72.88 52.13 72.88L52.13 72.88Q57.44 72.88 61.96 70.96Q66.48 69.03 69.50 65.29L69.50 65.29L72.52 68.72Q68.98 72.98 63.62 75.27Q58.27 77.56 52.03 77.56L52.03 77.56Q43.92 77.56 37.57 74.02Q31.23 70.49 27.64 64.25Q24.05 58.01 24.05 50L24.05 50Q24.05 42.10 27.43 35.80Q30.81 29.51 36.74 25.98Q42.67 22.44 50.05 22.44L50.05 22.44Q57.44 22.44 63.31 25.92Q69.19 29.41 72.57 35.65Q75.95 41.89 75.95 49.79L75.95 49.79ZM50.05 27.02Q44.33 27.02 39.76 29.56Q35.18 32.11 32.42 36.74Q29.67 41.37 29.25 47.19L29.25 47.19L70.85 47.19Q70.54 41.37 67.73 36.79Q64.92 32.22 60.35 29.62Q55.77 27.02 50.05 27.02L50.05 27.02Z"></path></svg>